<svg width="52" height="52" viewBox="0 0 52 52" fill="none" xmlns="http://www.w3.org/2000/svg">
<path d="M34 18V50M47.3333 50H4.66667C3.95942 50 3.28115 49.7191 2.78105 49.219C2.28095 48.7189 2 48.0406 2 47.3333V4.66667C2 3.95942 2.28095 3.28115 2.78105 2.78105C3.28115 2.28095 3.95942 2 4.66667 2H47.3333C48.0406 2 48.7189 2.28095 49.219 2.78105C49.7191 3.28115 50 3.95942 50 4.66667V47.3333C50 48.0406 49.7191 48.7189 49.219 49.219C48.7189 49.7191 48.0406 50 47.3333 50ZM2 18H50H2Z" stroke="#14213D" stroke-width="4" stroke-linecap="round" stroke-linejoin="round"/>
</svg>
