<svg width="64" height="64" viewBox="0 0 64 64" fill="none" xmlns="http://www.w3.org/2000/svg">
<path d="M12.8 17.6C16.1857 20.4433 20.2438 22.3713 24.5867 23.2C27.0202 23.7424 29.5068 24.0108 32 24C34.4932 24.0108 36.9798 23.7424 39.4133 23.2C43.7563 22.3713 47.8143 20.4433 51.2 17.6M56 32C56 36.7468 54.5924 41.3869 51.9553 45.3337C49.3181 49.2805 45.5698 52.3566 41.1844 54.1731C36.799 55.9896 31.9734 56.4649 27.3178 55.5389C22.6623 54.6128 18.3859 52.327 15.0294 48.9706C11.673 45.6141 9.38721 41.3377 8.46116 36.6822C7.53512 32.0266 8.0104 27.201 9.8269 22.8156C11.6434 18.4302 14.7195 14.6819 18.6663 12.0447C22.6131 9.40758 27.2533 8 32 8C38.3652 8 44.4697 10.5286 48.9706 15.0294C53.4714 19.5303 56 25.6348 56 32V32ZM51.2 46.4C47.8143 43.5567 43.7563 41.6287 39.4133 40.8C34.529 39.7308 29.4711 39.7308 24.5867 40.8C20.2438 41.6287 16.1857 43.5567 12.8 46.4H51.2Z" stroke="#14213D" stroke-width="3" stroke-linecap="round" stroke-linejoin="round"/>
<path d="M32 56C36.4183 56 40 45.2548 40 32C40 18.7452 36.4183 8 32 8C27.5817 8 24 18.7452 24 32C24 45.2548 27.5817 56 32 56Z" stroke="#FCA311" stroke-width="3" stroke-linecap="round" stroke-linejoin="round"/>
</svg>
