<svg width="52" height="52" viewBox="0 0 52 52" fill="none" xmlns="http://www.w3.org/2000/svg">
<path d="M50 26C50 30.7468 48.5924 35.3869 45.9553 39.3337C43.3181 43.2805 39.5698 46.3566 35.1844 48.1731C30.799 49.9896 25.9734 50.4649 21.3178 49.5389C16.6623 48.6128 12.3859 46.327 9.02945 42.9706C5.67299 39.6141 3.38721 35.3377 2.46116 30.6822C1.53512 26.0266 2.0104 21.201 3.8269 16.8156C5.64341 12.4302 8.71955 8.68188 12.6663 6.04473C16.6131 3.40758 21.2533 2 26 2L50 26ZM26 15.3333C23.8903 15.3333 21.8281 15.9589 20.0739 17.131C18.3198 18.3031 16.9526 19.969 16.1453 21.918C15.338 23.8671 15.1267 26.0118 15.5383 28.081C15.9499 30.1501 16.9658 32.0507 18.4575 33.5425C19.9493 35.0342 21.8499 36.0501 23.919 36.4617C25.9882 36.8733 28.1329 36.6621 30.082 35.8547C32.031 35.0474 33.697 33.6802 34.869 31.9261C36.0411 30.172 36.6667 28.1097 36.6667 26L26 15.3333ZM26 26L36.6667 15.3333L26 26ZM42 2L36.6667 7.33333V15.3333H44.6667L50 10L44.6667 7.33333L42 2Z" stroke="#14213D" stroke-width="4" stroke-linecap="round" stroke-linejoin="round"/>
</svg>
