<svg width="64" height="64" viewBox="0 0 64 64" fill="none" xmlns="http://www.w3.org/2000/svg">
<path d="M51.84 32.1333C51.1337 37.1247 49.1529 41.8498 46.0888 45.8528C43.0246 49.8558 38.9805 53.0016 34.3467 54.9866L32 56L29.6534 54.9866C25.0195 53.0016 20.9755 49.8558 17.9113 45.8528C14.8472 41.8498 12.8664 37.1247 12.16 32.1333C15.8506 39.0378 21.969 44.3297 29.3334 46.9866L32 48L34.6667 46.9866C42.031 44.3297 48.1494 39.0378 51.84 32.1333Z" fill="#E5E5E5"/>
<path d="M51.1467 12.8L32 8L12.8534 12.8C12.2617 12.946 11.7379 13.2903 11.3691 13.7755C11.0004 14.2606 10.8089 14.8575 10.8267 15.4667L11.9734 30.1867C12.3865 35.5241 14.2524 40.6468 17.3689 44.9995C20.4854 49.3523 24.7336 52.7692 29.6534 54.88L32 56L34.3467 54.9867C39.2664 52.8759 43.5147 49.459 46.6312 45.1062C49.7477 40.7534 51.6136 35.6308 52.0267 30.2933L53.1734 15.5733C53.2165 14.9464 53.0368 14.3243 52.666 13.8169C52.2952 13.3095 51.7571 12.9493 51.1467 12.8V12.8Z" stroke="#14213D" stroke-width="4" stroke-linecap="round" stroke-linejoin="round"/>
<path d="M24 29.3333L29.3333 34.6667L40 24" stroke="#FCA311" stroke-width="4" stroke-linecap="round" stroke-linejoin="round"/>
</svg>
